<?xml version="1.0" standalone="no"?>
<!DOCTYPE svg PUBLIC "-//W3C//DTD SVG 20010904//EN"
 "http://www.w3.org/TR/2001/REC-SVG-20010904/DTD/svg10.dtd">
<svg version="1.0" xmlns="http://www.w3.org/2000/svg"
 width="237.000000pt" height="212.000000pt" viewBox="0 0 237.000000 212.000000"
 preserveAspectRatio="xMidYMid meet">

<g transform="translate(0.000000,212.000000) scale(0.100000,-0.100000)"
fill="#000000" stroke="none">
<path d="M945 1770 c-302 -76 -538 -296 -631 -586 -37 -118 -50 -249 -35 -357
51 -361 279 -631 621 -738 66 -21 94 -24 245 -24 150 0 179 3 245 23 253 80
453 257 558 494 67 153 85 383 43 548 -85 331 -340 576 -671 645 -99 21 -282
18 -375 -5z m597 -118 c38 -35 42 -45 49 -105 8 -64 7 -70 -27 -134 -20 -39
-32 -74 -29 -84 4 -12 29 -25 74 -39 37 -11 75 -28 83 -37 14 -16 38 -83 38
-105 0 -5 -122 -8 -271 -8 l-271 0 7 33 c18 80 31 93 117 117 34 9 66 24 72
32 9 15 -8 58 -52 129 -10 16 -12 33 -7 45 4 10 7 42 6 70 -3 61 16 88 74 109
66 23 91 19 137 -23z m-724 -221 c79 -41 111 -98 138 -246 28 -157 12 -254
-51 -303 -19 -15 -23 -23 -14 -26 66 -19 112 -41 124 -60 12 -17 44 -133 45
-158 0 -5 -162 -8 -361 -8 l-361 0 6 23 c3 12 10 47 17 76 14 69 42 96 116
117 l59 16 -32 32 c-43 43 -58 102 -50 201 13 164 43 241 112 286 110 74 179
87 252 50z m452 -21 c0 -5 -28 -10 -62 -12 l-63 -3 -3 -482 -2 -483 66 0 c48
0 65 -3 62 -12 -3 -9 -27 -13 -74 -13 l-69 0 -3 248 -2 247 -65 0 c-37 0 -65
4 -65 10 0 6 28 10 65 10 l65 0 0 250 0 250 75 0 c41 0 75 -4 75 -10z m297
-636 c54 -41 66 -82 64 -228 -1 -133 -1 -133 24 -144 27 -12 39 -36 50 -96 l7
-36 -231 0 c-127 0 -231 3 -231 8 2 45 25 101 51 123 35 28 37 44 24 194 -6
72 -4 85 17 124 31 59 76 84 146 78 32 -2 63 -12 79 -23z"/>
<path d="M1416 1660 c-49 -15 -66 -38 -65 -89 l1 -46 11 32 c18 48 31 56 92
56 63 0 90 -17 104 -67 9 -30 9 -30 10 12 1 36 -4 47 -35 77 -37 36 -62 41
-118 25z"/>
<path d="M1417 1593 c-25 -7 -47 -67 -47 -130 0 -47 4 -59 29 -84 60 -59 140
-24 148 67 12 118 -36 172 -130 147z"/>
<path d="M1424 1306 c4 -17 13 -41 22 -54 l16 -25 18 29 c10 16 21 40 25 54 6
25 4 26 -40 25 -46 0 -46 0 -41 -29z"/>
<path d="M1514 1282 c-9 -25 -8 -31 7 -40 10 -7 21 -12 24 -12 8 0 5 23 -8 53
l-12 28 -11 -29z"/>
<path d="M1387 1268 c-6 -40 -1 -47 18 -27 9 8 12 23 9 37 -9 32 -21 27 -27
-10z"/>
<path d="M1287 1264 c-47 -15 -52 -21 -71 -81 l-7 -23 251 0 251 0 -7 23 c-19
61 -23 66 -78 83 -31 10 -58 16 -60 13 -3 -3 -1 -21 3 -41 11 -47 5 -52 -30
-27 -26 19 -30 19 -53 4 -20 -14 -28 -14 -45 -3 -17 11 -25 10 -52 -6 l-32
-19 5 47 c6 53 3 54 -75 30z"/>
<path d="M699 1430 c-15 -4 -56 -24 -92 -44 -86 -48 -112 -97 -128 -242 -15
-133 -7 -186 36 -232 18 -21 36 -34 39 -31 3 3 -1 43 -9 90 -19 105 -19 210
-1 252 13 33 68 87 88 87 5 0 30 -18 55 -40 32 -27 67 -46 113 -60 l67 -20 7
-88 c3 -48 2 -116 -3 -152 -6 -35 -9 -66 -7 -68 11 -11 67 56 77 91 28 102
-16 338 -74 397 -52 53 -117 76 -168 60z"/>
<path d="M610 1277 c-48 -38 -60 -68 -60 -147 0 -69 3 -81 30 -118 31 -43 95
-92 119 -92 32 0 100 52 130 99 27 42 32 57 29 102 l-3 53 -57 17 c-62 18
-114 47 -143 79 -21 23 -25 24 -45 7z"/>
<path d="M823 980 c-38 -43 -43 -84 -13 -100 17 -9 22 -7 30 14 10 27 25 127
19 125 -2 0 -19 -18 -36 -39z"/>
<path d="M560 986 c0 -35 25 -106 37 -106 23 0 15 60 -12 92 -17 20 -25 24
-25 14z"/>
<path d="M630 908 c0 -33 62 -220 70 -211 19 23 80 223 67 223 -1 0 -17 -4
-36 -10 -24 -7 -42 -6 -67 5 -32 13 -34 13 -34 -7z"/>
<path d="M772 823 c-7 -24 -8 -33 -1 -26 7 7 22 8 42 2 51 -14 53 -11 17 26
-19 19 -37 35 -40 35 -4 0 -12 -16 -18 -37z"/>
<path d="M485 829 c-75 -25 -89 -39 -108 -116 l-15 -63 160 0 159 0 -36 69
-37 69 -54 -18 c-29 -10 -56 -15 -59 -10 -3 5 11 27 31 50 41 45 41 45 -41 19z"/>
<path d="M560 815 l-33 -34 37 11 c29 9 42 9 57 0 10 -7 19 -10 19 -7 0 13
-31 65 -38 65 -5 0 -23 -16 -42 -35z"/>
<path d="M840 837 c8 -7 29 -28 45 -46 l30 -33 -30 5 c-16 3 -45 9 -62 15 -33
11 -33 11 -68 -52 -19 -35 -35 -66 -35 -69 0 -4 72 -7 159 -7 l159 0 -14 62
c-8 34 -22 70 -30 80 -9 9 -46 26 -82 37 -75 24 -94 26 -72 8z"/>
<path d="M1403 760 c-52 -31 -66 -70 -58 -159 4 -42 7 -100 8 -128 0 -51 1
-52 26 -46 50 11 54 27 19 74 -19 25 -23 44 -23 99 0 59 4 73 22 92 l23 22 32
-31 c18 -17 39 -28 46 -26 6 3 12 0 12 -5 0 -5 18 -17 40 -26 27 -10 40 -22
40 -34 0 -27 -20 -84 -36 -103 -23 -25 -16 -46 18 -58 17 -6 33 -10 35 -8 1 2
4 57 5 123 3 135 -12 188 -62 217 -38 23 -107 22 -147 -3z"/>
<path d="M1396 658 c-3 -13 -6 -40 -6 -60 0 -141 135 -176 171 -43 12 43 12
42 -23 49 -36 6 -58 19 -87 50 -30 32 -47 33 -55 4z"/>
<path d="M1478 452 c-32 -3 -38 -7 -38 -25 1 -28 23 -57 43 -57 11 0 20 15 27
41 6 23 10 42 8 43 -2 0 -20 0 -40 -2z"/>
<path d="M1530 407 c0 -8 -8 -25 -18 -37 -24 -30 -69 -21 -78 15 -7 29 -6 29
-74 14 -53 -11 -72 -30 -84 -81 l-6 -28 210 0 210 0 -6 28 c-11 48 -31 69 -77
80 -24 7 -52 14 -61 18 -10 4 -16 1 -16 -9z"/>
</g>
</svg>
