<?xml version="1.0" standalone="no"?>
<!DOCTYPE svg PUBLIC "-//W3C//DTD SVG 20010904//EN"
 "http://www.w3.org/TR/2001/REC-SVG-20010904/DTD/svg10.dtd">
<svg version="1.0" xmlns="http://www.w3.org/2000/svg"
 width="517.000000pt" height="217.000000pt" viewBox="0 0 517.000000 217.000000"
 preserveAspectRatio="xMidYMid meet">

<g transform="translate(0.000000,217.000000) scale(0.100000,-0.100000)"
fill="#000000" stroke="none">
<path d="M1155 1761 c-291 -64 -544 -291 -636 -571 -23 -71 -49 -218 -49 -279
0 -58 25 -199 46 -266 36 -110 116 -244 203 -338 82 -89 243 -185 381 -229 66
-20 95 -23 245 -23 151 0 179 3 245 24 347 108 583 393 620 745 46 445 -250
849 -691 941 -94 20 -264 18 -364 -4z m321 -94 c63 -39 139 -88 169 -107 30
-19 93 -59 140 -88 48 -30 85 -58 83 -64 -2 -6 -43 -32 -89 -56 l-86 -46 5
-47 c7 -70 -5 -113 -44 -164 l-34 -45 19 -28 c37 -52 53 -127 49 -223 l-3 -89
86 0 c58 0 90 -4 96 -12 5 -7 25 -51 44 -97 19 -47 36 -89 37 -93 2 -4 -8 -8
-21 -8 -62 0 -90 -112 -42 -168 14 -17 25 -33 25 -36 0 -3 -261 -6 -579 -6
l-580 0 -20 26 c-15 19 -21 41 -21 80 0 68 41 199 83 261 l32 48 81 3 81 3 -5
69 c-6 83 19 193 52 235 l24 30 -39 43 c-37 43 -66 128 -55 163 20 63 19 65
-45 103 -33 20 -65 36 -70 36 -11 0 -12 -107 0 -112 4 -1 11 -45 14 -96 6 -89
5 -93 -16 -101 -44 -17 -49 -6 -41 98 3 53 9 127 11 164 4 55 9 70 25 80 11 7
127 83 257 169 130 86 242 155 250 152 7 -2 64 -37 127 -77z"/>
<path d="M1109 1575 c-129 -85 -234 -159 -234 -165 0 -6 26 -25 57 -43 l57
-31 49 46 50 47 -29 27 c-16 15 -29 36 -29 46 0 23 2 23 52 -3 31 -16 52 -19
87 -15 140 17 210 18 280 2 76 -17 110 -14 153 15 14 11 29 19 32 19 14 0 4
-50 -15 -74 l-21 -26 44 -49 43 -49 78 41 c42 23 77 44 77 47 0 3 -66 47 -147
98 -82 51 -191 121 -243 154 -52 33 -98 62 -101 64 -4 2 -112 -66 -240 -151z"/>
<path d="M1054 1481 c12 -18 78 -57 146 -86 34 -15 79 -37 98 -49 l36 -23 41
28 c23 16 77 40 120 54 73 24 125 56 125 77 0 5 -10 2 -22 -6 -29 -20 -98 -20
-196 0 -70 14 -83 14 -165 -2 -88 -17 -106 -15 -176 13 -9 4 -11 1 -7 -6z"/>
<path d="M1045 1366 c-43 -43 -65 -93 -65 -146 1 -67 74 -161 156 -199 59 -28
61 -27 13 16 -49 44 -66 76 -80 146 -15 80 -3 145 36 184 18 18 30 35 27 38
-15 15 -47 0 -87 -39z"/>
<path d="M1552 1403 c-9 -3 -3 -15 18 -39 28 -33 30 -40 30 -117 0 -58 -6 -94
-19 -122 -22 -48 -74 -103 -116 -121 -16 -7 -25 -13 -18 -14 28 -1 131 54 166
88 50 48 69 91 69 152 0 58 -33 122 -81 158 -16 12 -31 22 -33 21 -2 0 -9 -3
-16 -6z"/>
<path d="M1134 1371 c-41 -25 -58 -76 -51 -153 12 -132 87 -206 216 -216 181
-13 286 77 286 244 0 70 -14 103 -55 127 -25 15 -32 15 -69 2 -23 -8 -61 -28
-85 -44 -39 -27 -45 -29 -64 -15 -20 14 -137 74 -144 74 -2 0 -17 -9 -34 -19z
m144 -57 c34 -39 30 -95 -9 -128 -90 -76 -207 40 -130 128 37 43 101 43 139 0z
m246 6 c15 -15 21 -33 21 -66 0 -38 -5 -50 -29 -71 -54 -46 -135 -17 -153 55
-7 30 20 85 50 101 31 15 87 5 111 -19z m-154 -145 l33 -35 -31 -30 c-18 -16
-36 -30 -41 -30 -6 0 -24 15 -40 32 l-30 33 31 32 c18 18 35 33 38 33 3 0 21
-16 40 -35z"/>
<path d="M1161 1313 c-54 -45 -24 -133 45 -133 71 0 103 86 48 129 -33 26 -65
27 -93 4z m70 -23 c21 -12 25 -50 7 -68 -39 -39 -100 17 -63 58 21 23 29 24
56 10z"/>
<path d="M1193 1273 c-17 -6 -17 -28 0 -41 17 -14 40 1 35 23 -3 20 -16 26
-35 18z"/>
<path d="M1405 1305 c-30 -30 -32 -64 -4 -99 41 -52 129 -20 129 48 0 34 -41
76 -75 76 -14 0 -37 -11 -50 -25z m76 -15 c21 -12 25 -50 7 -68 -39 -39 -100
17 -63 58 21 23 29 24 56 10z"/>
<path d="M1434 1266 c-8 -21 3 -36 27 -36 15 0 20 6 17 22 -4 27 -35 37 -44
14z"/>
<path d="M1307 1172 c-20 -22 -13 -32 23 -32 15 0 30 3 33 7 7 7 -21 43 -33
43 -4 0 -14 -8 -23 -18z"/>
<path d="M1318 1108 c9 -9 15 -9 24 0 9 9 7 12 -12 12 -19 0 -21 -3 -12 -12z"/>
<path d="M824 1251 c3 -4 2 -39 -3 -77 -9 -68 -1 -98 18 -78 12 11 2 164 -11
164 -5 0 -7 -4 -4 -9z"/>
<path d="M1568 1019 c-23 -17 -26 -24 -18 -44 5 -14 14 -60 19 -102 12 -99 1
-153 -49 -235 -21 -35 -34 -65 -29 -67 21 -7 70 23 113 69 62 66 81 132 66
226 -11 69 -52 174 -67 174 -4 0 -20 -10 -35 -21z"/>
<path d="M1033 973 c-25 -52 -28 -69 -28 -158 0 -108 11 -141 64 -198 29 -32
80 -62 89 -52 3 3 -11 39 -32 80 -49 95 -56 165 -27 280 18 73 18 80 3 92 -29
22 -40 15 -69 -44z"/>
<path d="M1123 942 c-10 -33 -18 -90 -18 -137 0 -74 3 -85 40 -155 22 -41 41
-77 43 -79 1 -3 61 -5 132 -6 l130 -1 33 51 c62 92 71 116 71 190 0 39 -6 97
-13 131 l-14 61 -41 -16 c-58 -22 -257 -21 -308 1 l-38 17 -17 -57z"/>
<path d="M828 673 c-17 -19 -61 -105 -72 -138 -6 -20 -2 -20 200 -17 153 2
204 6 201 15 -2 6 -13 14 -25 17 -35 8 -90 58 -112 100 l-20 40 -79 0 c-62 0
-81 -4 -93 -17z"/>
<path d="M1660 680 c0 -20 -80 -97 -120 -115 -22 -10 -40 -24 -40 -32 0 -10
41 -13 210 -13 116 0 210 1 210 3 0 1 -15 38 -34 82 l-33 80 -97 3 c-63 2 -96
-1 -96 -8z"/>
<path d="M1180 516 c0 -26 4 -36 16 -36 11 0 14 8 12 32 -4 46 -28 49 -28 4z"/>
<path d="M1230 515 c0 -24 5 -35 15 -35 10 0 15 11 15 35 0 24 -5 35 -15 35
-10 0 -15 -11 -15 -35z"/>
<path d="M1287 544 c-4 -4 -7 -20 -7 -36 0 -22 5 -28 21 -28 17 0 20 5 17 32
-3 31 -17 45 -31 32z"/>
<path d="M1347 543 c-14 -13 -7 -63 8 -63 10 0 15 11 15 35 0 33 -8 43 -23 28z"/>
<path d="M1400 516 c0 -26 4 -36 16 -36 11 0 14 8 12 32 -4 46 -28 49 -28 4z"/>
<path d="M1450 515 c0 -24 5 -35 15 -35 10 0 15 11 15 35 0 24 -5 35 -15 35
-10 0 -15 -11 -15 -35z"/>
<path d="M762 488 c-16 -21 -24 -76 -17 -118 l7 -40 554 0 c545 0 555 0 544
19 -14 28 -13 76 4 116 l15 35 -185 0 c-177 0 -184 -1 -184 -20 0 -11 -3 -20
-7 -21 -30 -4 -316 -3 -322 1 -4 3 -10 13 -14 23 -6 15 -25 17 -195 17 -140 0
-192 -3 -200 -12z"/>
<path d="M5120 1760 c0 -13 7 -20 20 -20 13 0 20 7 20 20 0 13 -7 20 -20 20
-13 0 -20 -7 -20 -20z"/>
</g>
</svg>
