<?xml version="1.0" standalone="no"?>
<!DOCTYPE svg PUBLIC "-//W3C//DTD SVG 20010904//EN"
 "http://www.w3.org/TR/2001/REC-SVG-20010904/DTD/svg10.dtd">
<svg version="1.0" xmlns="http://www.w3.org/2000/svg"
 width="308.000000pt" height="197.000000pt" viewBox="0 0 308.000000 197.000000"
 preserveAspectRatio="xMidYMid meet">

<g transform="translate(0.000000,197.000000) scale(0.100000,-0.100000)"
fill="#000000" stroke="none">
<path d="M879 1766 c-69 -16 -189 -57 -189 -66 0 -4 18 -20 40 -35 22 -15 38
-31 35 -35 -3 -4 2 -10 10 -14 8 -3 15 -12 15 -20 0 -23 22 -24 85 -4 34 11
74 17 92 14 18 -2 35 0 38 5 9 14 40 11 102 -11 32 -11 63 -20 69 -20 6 0 22
16 35 35 13 19 48 51 77 71 56 39 62 50 35 58 -116 36 -332 46 -444 22z"/>
<path d="M1310 1680 c-30 -22 -56 -44 -58 -49 -3 -8 136 -221 144 -221 3 0 60
32 126 72 l121 72 -43 37 c-49 42 -172 115 -210 124 -19 5 -38 -3 -80 -35z"/>
<path d="M580 1641 c-71 -47 -159 -126 -149 -135 16 -14 155 -96 164 -96 10 1
137 192 143 215 2 9 -67 65 -81 65 -1 0 -36 -22 -77 -49z"/>
<path d="M3030 1609 c0 -25 33 -22 38 4 2 12 -3 17 -17 17 -15 0 -21 -6 -21
-21z"/>
<path d="M705 1533 c-84 -128 -87 -133 -76 -133 17 0 146 196 133 204 -4 2
-30 -30 -57 -71z"/>
<path d="M1227 1604 c-7 -7 122 -204 135 -204 4 0 8 2 8 5 0 5 -130 205 -134
205 -2 0 -5 -3 -9 -6z"/>
<path d="M977 1570 c-31 -20 -47 -36 -47 -50 0 -25 95 -169 117 -177 8 -3 24
3 35 15 l21 20 -23 37 c-12 20 -20 38 -18 41 3 2 18 -1 35 -7 24 -8 39 -7 67
5 41 17 59 5 19 -13 l-26 -12 51 -35 c28 -18 54 -34 57 -34 3 0 5 10 5 21 0
18 2 19 15 9 12 -10 18 -10 29 -1 13 11 9 21 -22 70 -66 102 -80 117 -92 105
-8 -8 -29 -5 -78 12 -86 30 -89 30 -145 -6z"/>
<path d="M883 1578 c-41 -13 -41 -23 -4 -43 28 -14 30 -14 36 5 4 11 18 27 33
35 l27 14 -30 0 c-16 -1 -45 -6 -62 -11z"/>
<path d="M721 1490 c-66 -102 -66 -104 -37 -119 23 -13 30 -10 98 33 80 51
116 56 133 18 6 -12 16 -20 23 -17 8 3 18 5 22 5 5 0 -3 18 -18 41 -17 26 -51
55 -93 80 -36 21 -68 39 -71 39 -3 0 -29 -36 -57 -80z"/>
<path d="M1535 1469 c-60 -37 -128 -73 -150 -79 -90 -25 -95 -29 -89 -70 5
-31 2 -40 -16 -53 -12 -8 -19 -20 -15 -27 11 -18 -23 -60 -49 -60 -14 0 -30
-10 -41 -26 -14 -21 -23 -25 -50 -22 -26 3 -35 0 -38 -14 -7 -25 -35 -33 -69
-20 -23 8 -35 7 -57 -6 -24 -13 -34 -14 -55 -4 -16 7 -26 20 -26 32 0 12 -4
18 -11 15 -20 -13 -59 5 -65 29 -4 16 -11 23 -20 19 -18 -7 -64 23 -64 42 0 8
-12 20 -27 27 -33 16 -41 52 -18 78 16 17 15 19 -7 31 -13 7 -26 13 -30 14 -3
0 -10 3 -14 8 -4 4 -14 7 -23 7 -9 0 -53 23 -99 50 -46 28 -87 50 -93 50 -17
0 -101 -124 -140 -206 -72 -152 -101 -319 -80 -467 43 -299 207 -540 461 -671
150 -78 209 -91 405 -91 151 0 179 3 245 24 151 47 269 119 380 232 285 290
326 752 97 1089 -44 65 -110 140 -122 139 -5 -1 -59 -32 -120 -70z m-30 -466
c34 -51 34 -119 0 -173 -14 -22 -29 -40 -33 -40 -14 0 -48 43 -62 78 -7 18
-10 48 -7 68 7 43 44 104 62 104 8 0 26 -17 40 -37z m-795 -39 c85 -2 179 1
208 7 88 18 136 -9 76 -42 -41 -22 -73 -65 -67 -91 11 -46 32 -58 97 -58 63 0
130 -23 154 -53 22 -26 11 -61 -23 -72 -17 -5 -44 -20 -59 -33 -34 -26 -52
-27 -107 -6 -39 16 -42 16 -59 -2 -9 -10 -30 -51 -44 -91 -23 -60 -26 -78 -17
-108 14 -50 -7 -120 -36 -120 -11 -1 -27 -5 -34 -11 -18 -13 -142 -10 -147 4
-1 5 -11 8 -21 5 -10 -3 -22 1 -26 7 -16 25 -23 81 -15 116 7 29 3 52 -17 108
-14 39 -34 80 -44 90 -18 19 -19 19 -73 1 -53 -18 -55 -18 -81 1 -37 25 -45
30 -77 43 -20 7 -28 18 -28 34 0 46 76 87 162 87 72 0 100 20 96 68 -2 29 -11
42 -45 67 -65 47 -54 69 27 58 25 -3 115 -7 200 -9z m650 -106 c50 -26 76 -63
86 -126 6 -41 6 -42 -23 -42 -42 0 -115 40 -135 75 -9 17 -20 49 -24 73 -6 41
-6 42 23 42 16 0 49 -10 73 -22z m308 -23 c-9 -78 -60 -128 -145 -142 -33 -6
-33 -5 -33 33 0 22 8 55 19 74 20 39 89 79 135 80 28 0 29 -1 24 -45z m-188
-369 c0 -179 -4 -287 -10 -291 -7 -4 -10 93 -10 284 0 187 4 291 10 291 6 0
10 -101 10 -284z m-102 217 c42 -31 61 -65 64 -113 3 -45 3 -45 -29 -44 -47 2
-105 35 -125 69 -9 17 -20 50 -24 74 l-7 44 48 -5 c26 -3 59 -14 73 -25z m290
-17 c-3 -24 -16 -59 -28 -76 -24 -34 -89 -69 -127 -70 -20 0 -23 5 -23 38 0
80 70 151 149 152 l34 0 -5 -44z m-290 -153 c41 -30 60 -64 68 -117 l7 -49
-36 6 c-90 14 -140 62 -153 146 l-7 44 48 -5 c26 -3 59 -14 73 -25z m290 -18
c-7 -62 -45 -109 -105 -129 -68 -23 -73 -22 -73 24 0 87 62 147 154 149 28 1
29 0 24 -44z"/>
<path d="M1445 996 c-27 -41 -30 -105 -6 -143 12 -18 26 -33 31 -33 6 0 20 20
31 45 17 39 18 50 8 85 -7 22 -20 47 -30 56 -16 15 -19 14 -34 -10z"/>
<path d="M500 929 c45 -35 45 -35 62 -15 22 28 12 35 -53 43 l-54 6 45 -34z"/>
<path d="M915 953 c-31 -8 -35 -16 -17 -40 l17 -22 40 35 40 34 -30 -1 c-16
-1 -39 -3 -50 -6z"/>
<path d="M627 941 c-6 -2 -24 -15 -39 -29 -54 -50 -46 -125 21 -226 35 -52 45
-86 22 -72 -4 3 -4 -17 0 -44 6 -38 3 -67 -12 -121 -16 -59 -18 -78 -8 -106 9
-28 13 -32 25 -22 13 10 12 14 -1 29 -17 19 -20 53 -5 79 8 15 22 18 102 17
l92 -1 9 -32 c8 -25 6 -38 -6 -57 -14 -20 -14 -26 -3 -35 29 -25 36 70 10 146
-11 31 -14 62 -10 91 3 25 2 50 -3 56 -7 8 5 35 34 81 51 81 64 138 42 181
-31 59 -48 67 -157 68 -55 0 -106 -1 -113 -3z"/>
<path d="M510 773 c-11 -17 -21 -20 -49 -17 l-36 5 30 -14 c17 -8 36 -12 43
-9 8 3 12 -8 13 -34 l1 -39 9 45 c5 25 8 54 6 65 -2 19 -3 19 -17 -2z"/>
<path d="M933 715 c1 -74 13 -75 16 -1 1 18 5 27 14 24 6 -3 26 1 42 9 l30 14
-37 -5 c-29 -4 -39 0 -52 17 -14 20 -15 16 -13 -58z"/>
<path d="M333 733 c-51 -10 -55 -55 -6 -67 15 -4 38 -17 50 -28 16 -15 29 -19
50 -14 49 13 71 32 66 60 -8 43 -80 65 -160 49z"/>
<path d="M1000 722 c-51 -25 -53 -62 -5 -85 45 -22 57 -21 86 2 13 10 38 22
54 28 43 14 40 45 -5 60 -50 17 -90 16 -130 -5z"/>
<path d="M570 686 c0 -8 5 -18 10 -21 6 -3 10 1 10 9 0 8 -4 18 -10 21 -5 3
-10 -1 -10 -9z"/>
<path d="M871 686 c-7 -8 -8 -17 -3 -20 6 -3 13 1 16 10 9 23 2 28 -13 10z"/>
<path d="M901 668 c-1 -13 -9 -18 -30 -18 -17 0 -31 -6 -35 -16 -9 -22 -8 -26
6 -18 8 5 9 -8 5 -49 -4 -31 -3 -58 2 -61 11 -7 64 138 58 161 -4 17 -5 17 -6
1z"/>
<path d="M551 655 c0 -29 55 -170 61 -159 3 5 4 41 3 79 -2 65 -4 70 -26 74
-13 1 -27 8 -31 15 -5 7 -8 3 -7 -9z"/>
<path d="M699 423 c-1 -5 -2 -19 -2 -32 -1 -13 -8 -26 -16 -29 -9 -3 -11 1 -6
17 7 22 -1 26 -22 13 -10 -7 -10 -14 0 -35 11 -25 17 -27 72 -27 53 1 62 4 79
26 15 22 16 28 5 35 -23 14 -31 10 -24 -11 7 -22 -7 -27 -23 -7 -7 8 -7 18 -2
27 5 8 6 18 4 22 -7 10 -64 11 -65 1z"/>
<path d="M664 303 c10 -10 126 -11 126 -1 0 4 -30 8 -67 8 -36 0 -63 -3 -59
-7z"/>
<path d="M1284 830 c12 -64 52 -104 116 -116 l33 -7 -7 33 c-3 19 -13 44 -21
57 -20 30 -53 51 -95 59 l-33 7 7 -33z"/>
<path d="M1583 845 c-37 -16 -62 -50 -73 -100 -7 -31 -6 -35 12 -35 39 0 89
32 108 71 38 73 22 94 -47 64z"/>
<path d="M1280 678 c0 -7 9 -32 19 -55 19 -42 49 -64 104 -77 34 -8 36 10 7
70 -14 27 -33 48 -54 58 -41 19 -76 21 -76 4z"/>
<path d="M1580 672 c-36 -18 -66 -60 -72 -102 -3 -22 0 -25 27 -22 17 2 40 10
53 18 29 19 62 72 62 102 0 27 -22 29 -70 4z"/>
<path d="M1280 511 c0 -21 25 -78 42 -98 11 -12 32 -24 46 -28 15 -3 35 -8 46
-12 17 -5 18 -1 12 33 -9 47 -33 79 -73 99 -34 16 -73 20 -73 6z"/>
<path d="M1575 501 c-38 -22 -62 -58 -67 -97 -3 -27 -1 -29 27 -26 17 2 40 10
53 18 29 19 62 72 62 102 0 28 -32 30 -75 3z"/>
<path d="M860 1431 c-49 -20 -180 -115 -180 -131 0 -29 25 -43 52 -29 37 20
166 108 172 118 15 24 -16 54 -44 42z"/>
<path d="M1107 1393 c7 -41 11 -45 91 -94 43 -26 55 -29 67 -19 30 25 16 47
-64 99 -43 28 -84 51 -89 51 -7 0 -8 -14 -5 -37z"/>
<path d="M845 1322 c-104 -70 -128 -103 -85 -117 15 -5 47 11 123 61 56 37
105 72 109 77 10 16 -10 47 -30 47 -9 0 -62 -31 -117 -68z"/>
<path d="M1073 1327 c-30 -17 -18 -34 66 -91 60 -40 74 -45 91 -36 34 18 20
42 -54 92 -78 53 -73 52 -103 35z"/>
<path d="M907 1263 c-75 -50 -87 -62 -85 -83 5 -39 33 -36 106 13 37 24 77 50
90 56 17 9 22 19 20 39 -5 43 -35 37 -131 -25z"/>
<path d="M989 1212 c-86 -56 -100 -71 -88 -93 15 -29 38 -23 112 27 73 49 86
66 67 89 -17 21 -27 18 -91 -23z"/>
<path d="M1107 1213 c-2 -10 -8 -25 -11 -33 -9 -22 29 -43 54 -30 26 14 25 32
-3 58 -28 27 -33 27 -40 5z"/>
<path d="M1038 1140 c-30 -18 -27 -30 8 -30 23 0 37 20 26 37 -5 6 -17 4 -34
-7z"/>
</g>
</svg>
