<?xml version="1.0" standalone="no"?>
<!DOCTYPE svg PUBLIC "-//W3C//DTD SVG 20010904//EN"
 "http://www.w3.org/TR/2001/REC-SVG-20010904/DTD/svg10.dtd">
<svg version="1.0" xmlns="http://www.w3.org/2000/svg"
 width="490.000000pt" height="217.000000pt" viewBox="0 0 490.000000 217.000000"
 preserveAspectRatio="xMidYMid meet">

<g transform="translate(0.000000,217.000000) scale(0.100000,-0.100000)"
fill="#000000" stroke="none">
<path d="M1285 1763 c-303 -42 -582 -272 -687 -565 -30 -85 -58 -228 -58 -299
0 -57 26 -209 45 -266 95 -279 304 -484 585 -574 67 -22 93 -24 250 -24 166 0
179 2 255 28 345 121 569 399 606 749 16 158 -17 340 -87 481 -117 232 -363
418 -614 463 -70 12 -228 16 -295 7z m543 -355 c9 -9 12 -89 13 -292 1 -155 4
-271 6 -258 3 16 11 22 33 22 24 0 29 -5 34 -35 8 -40 21 -44 52 -14 19 18 25
19 43 7 15 -9 20 -19 16 -33 -13 -43 -11 -50 20 -51 17 0 36 -4 43 -8 19 -11
14 -44 -9 -56 -27 -15 -21 -43 11 -50 46 -11 33 -70 -15 -70 -31 0 -38 -24
-14 -46 23 -20 23 -23 4 -48 -12 -16 -19 -18 -40 -8 -37 17 -52 6 -51 -36 1
-31 -3 -37 -22 -40 -14 -2 -30 5 -42 20 -20 23 -20 23 -35 4 -8 -11 -15 -26
-15 -33 0 -8 -12 -13 -29 -13 -29 0 -41 14 -41 51 0 25 -18 24 -46 -2 -19 -18
-25 -19 -43 -7 -14 8 -20 19 -16 30 20 66 21 62 -19 55 -33 -5 -38 -3 -48 19
-11 23 -9 28 12 44 27 21 22 47 -12 52 -45 6 -30 68 17 68 13 0 25 6 28 14 11
28 -17 36 -126 36 l-109 0 7 -32 c14 -68 48 -154 71 -185 13 -17 24 -34 24
-37 0 -3 -97 -6 -215 -6 -118 0 -215 4 -215 9 0 5 7 14 16 22 28 23 70 118 88
202 l6 27 -198 0 c-163 0 -201 3 -220 16 -22 15 -22 16 -22 325 0 195 4 318
10 330 10 18 27 19 523 19 386 0 516 -3 525 -12z"/>
<path d="M797 1393 c-4 -3 -7 -144 -7 -313 0 -225 3 -309 12 -318 9 -9 116
-12 419 -12 407 0 408 0 423 22 13 19 19 20 41 10 37 -17 52 -6 51 36 -1 31 3
37 22 40 14 2 30 -5 42 -20 19 -23 20 -21 17 267 l-2 290 -506 3 c-278 1 -509
-1 -512 -5z m443 -69 c0 -14 -142 -400 -151 -408 -24 -25 -13 15 52 195 38
106 72 200 74 207 4 12 25 17 25 6z m-200 -77 c0 -8 -36 -33 -80 -57 -44 -24
-80 -46 -80 -49 0 -3 36 -26 80 -51 44 -25 80 -51 80 -57 0 -19 -3 -18 -106
40 -54 29 -94 58 -94 67 0 8 40 38 93 67 101 57 107 59 107 40z m339 -40 c52
-30 96 -58 98 -64 4 -10 -182 -123 -200 -123 -4 0 -7 6 -7 13 0 6 39 33 86 58
l86 47 -58 33 c-33 19 -71 41 -86 48 -25 13 -39 41 -20 41 4 0 49 -24 101 -53z
m151 -292 c0 -29 -34 -36 -44 -9 -8 21 1 34 25 34 14 0 19 -7 19 -25z m98 3
c-2 -15 -10 -23 -23 -23 -13 0 -21 8 -23 23 -3 18 1 22 23 22 22 0 26 -4 23
-22z m100 0 c-2 -15 -11 -24 -25 -26 -19 -3 -23 1 -23 22 0 21 5 26 26 26 21
0 25 -4 22 -22z"/>
<path d="M1867 853 c-4 -3 -7 -14 -7 -24 0 -30 -49 -37 -71 -11 -25 31 -42 28
-34 -6 8 -41 -25 -70 -61 -54 -13 7 -27 12 -29 12 -11 0 -4 -25 12 -42 23 -25
4 -65 -33 -70 -38 -4 -41 -25 -5 -33 26 -5 31 -11 31 -35 0 -19 -7 -33 -20
-40 -32 -17 -23 -30 19 -30 45 0 58 -20 42 -64 -12 -31 2 -35 30 -10 28 25 68
11 76 -26 7 -37 18 -38 35 -2 17 34 52 41 70 13 20 -32 42 -27 35 8 -9 41 23
69 59 53 13 -7 27 -12 29 -12 11 0 4 25 -12 42 -23 25 -4 65 33 70 38 4 41 25
5 33 -26 5 -31 11 -31 35 0 19 7 33 20 40 33 18 24 37 -16 36 -45 -1 -66 23
-46 54 6 11 12 22 12 25 0 11 -24 4 -41 -10 -26 -24 -65 -10 -73 26 -5 28 -16
36 -29 22z m63 -85 c152 -77 96 -302 -75 -302 -66 0 -117 30 -144 88 -27 55
-26 93 2 146 26 50 90 90 141 90 18 0 52 -10 76 -22z"/>
<path d="M1794 756 c-75 -33 -105 -145 -57 -212 89 -125 287 -42 259 109 -17
91 -115 141 -202 103z"/>
<path d="M1226 718 c-2 -7 -8 -35 -15 -63 -6 -27 -24 -76 -40 -107 l-30 -58
176 0 c96 0 173 3 171 8 -28 55 -51 117 -64 168 l-16 64 -90 0 c-62 0 -90 -4
-92 -12z"/>
<path d="M4840 770 c0 -13 7 -20 20 -20 13 0 20 7 20 20 0 13 -7 20 -20 20
-13 0 -20 -7 -20 -20z"/>
</g>
</svg>
