<?xml version="1.0" standalone="no"?>
<!DOCTYPE svg PUBLIC "-//W3C//DTD SVG 20010904//EN"
 "http://www.w3.org/TR/2001/REC-SVG-20010904/DTD/svg10.dtd">
<svg version="1.0" xmlns="http://www.w3.org/2000/svg"
 width="546.000000pt" height="221.000000pt" viewBox="0 0 546.000000 221.000000"
 preserveAspectRatio="xMidYMid meet">

<g transform="translate(0.000000,221.000000) scale(0.100000,-0.100000)"
fill="#000000" stroke="none">
<path d="M1350 1810 c-481 -107 -781 -591 -660 -1066 37 -144 145 -333 237
-414 166 -146 324 -220 514 -240 417 -43 785 198 925 605 26 75 28 90 28 260
1 178 1 181 -32 274 -87 250 -271 446 -506 540 -152 60 -348 77 -506 41z m252
-234 c95 -18 156 -43 170 -70 18 -32 35 -134 37 -223 2 -81 -14 -146 -42 -168
-7 -5 -27 -31 -44 -56 -17 -25 -38 -51 -47 -58 -17 -14 -22 -71 -7 -71 5 0 23
-11 39 -25 17 -14 76 -43 132 -66 160 -64 203 -89 221 -129 16 -34 42 -190 33
-199 -9 -10 -16 11 -24 78 -14 109 -29 135 -97 169 -77 39 -213 95 -218 90 -2
-2 1 -36 7 -76 10 -65 15 -75 40 -88 47 -24 57 -59 61 -207 1 -55 -2 -90 -10
-98 -14 -14 -88 -28 -103 -19 -17 11 0 42 19 34 64 -26 81 -12 81 66 0 146
-35 215 -110 215 -53 0 -81 -30 -114 -123 -41 -116 -32 -159 33 -146 31 7 38
0 22 -25 -10 -15 -41 -8 -80 17 -20 13 -22 22 -18 58 7 66 56 186 88 216 17
16 41 28 56 28 25 0 26 1 19 56 -5 48 -29 114 -40 114 -2 0 -36 -47 -76 -105
-40 -58 -74 -105 -75 -105 -1 0 -39 43 -85 96 -46 52 -87 91 -91 87 -13 -13
-29 -138 -29 -225 0 -60 3 -78 14 -78 18 0 33 -19 41 -52 5 -21 1 -33 -19 -52
-29 -30 -56 -33 -84 -9 -36 32 -37 60 -3 94 30 29 31 34 31 117 1 48 7 115 14
150 7 34 10 62 6 62 -19 0 -242 -94 -264 -111 -28 -22 -44 -69 -54 -161 -4
-32 -11 -58 -17 -58 -22 1 16 199 44 224 22 20 134 71 231 105 70 25 140 76
140 102 0 5 -18 32 -40 60 -22 28 -40 55 -40 60 0 4 -13 22 -29 38 -17 17 -35
48 -40 68 -12 42 -13 263 -2 303 9 34 84 78 162 94 82 18 75 18 161 2z"/>
<path d="M1390 1541 c-82 -34 -97 -55 -105 -152 -4 -46 -5 -96 -3 -109 4 -30
38 -41 38 -12 0 80 395 78 432 -3 8 -19 15 -22 28 -15 15 8 16 18 4 114 -7 58
-18 114 -24 125 -21 40 -96 63 -215 67 -91 3 -118 1 -155 -15z m200 -31 c0
-13 7 -20 20 -20 17 0 20 -7 20 -45 0 -38 -3 -45 -20 -45 -13 0 -20 -7 -20
-20 0 -17 -7 -20 -50 -20 -43 0 -50 3 -50 20 0 13 -7 20 -20 20 -17 0 -20 7
-20 45 0 38 3 45 20 45 13 0 20 7 20 20 0 17 7 20 50 20 43 0 50 -3 50 -20z"/>
<path d="M1510 1495 c0 -18 -5 -25 -20 -25 -15 0 -20 -7 -20 -25 0 -18 5 -25
20 -25 15 0 20 -7 20 -25 0 -21 5 -25 30 -25 25 0 30 4 30 25 0 18 5 25 20 25
15 0 20 7 20 25 0 18 -5 25 -20 25 -15 0 -20 7 -20 25 0 21 -5 25 -30 25 -25
0 -30 -4 -30 -25z"/>
<path d="M1480 1309 c-30 -3 -74 -12 -97 -18 -41 -11 -43 -14 -43 -48 0 -29
-3 -34 -12 -25 -20 20 -28 14 -28 -23 0 -25 7 -43 23 -58 13 -12 30 -33 37
-47 39 -75 132 -150 186 -150 46 0 136 78 174 150 7 14 21 31 31 38 20 14 46
88 35 99 -3 4 -12 1 -18 -5 -19 -19 -28 -14 -28 17 0 26 -5 31 -47 45 -71 23
-151 32 -213 25z"/>
<path d="M1605 938 c-36 -22 -61 -23 -108 -3 -51 21 -57 19 -57 -18 0 -24 -6
-37 -19 -43 -18 -8 -13 -17 56 -97 l75 -88 42 58 c23 32 52 75 64 95 23 36 23
37 3 47 -11 6 -21 24 -23 39 l-3 29 -30 -19z"/>
<path d="M1317 512 c-40 -44 0 -99 49 -67 30 19 31 49 2 69 -28 20 -31 20 -51
-2z m48 -32 c0 -18 -6 -26 -21 -28 -23 -3 -37 18 -27 44 10 25 48 13 48 -16z"/>
<path d="M1330 480 c0 -5 5 -10 10 -10 6 0 10 5 10 10 0 6 -4 10 -10 10 -5 0
-10 -4 -10 -10z"/>
<path d="M5410 1381 c0 -15 6 -21 21 -21 14 0 19 5 17 17 -5 26 -38 29 -38 4z"/>
</g>
</svg>
